<svg width="282" height="42" viewBox="0 0 282 42" fill="none" xmlns="http://www.w3.org/2000/svg">
<path d="M0 1.14453H29.3806V10.9638H10.7578V18.5655H27.7952V27.8174H10.7578V40.8651H0V1.14453Z" fill="#42107C"/>
<path d="M54.5906 32.0673C60.5511 32.0673 65.2557 27.2402 65.2557 21C65.2557 14.7598 60.5511 9.93272 54.5906 9.93272C48.63 9.93272 43.9255 14.8114 43.9255 21C43.9255 27.1886 48.5786 32.0673 54.5906 32.0673ZM54.5906 0C66.8411 0 75.9312 9.36541 75.9312 21C75.9312 32.6346 66.8514 42 54.5906 42C42.3298 42 33.25 32.6346 33.25 21C33.25 9.36541 42.3298 0 54.5906 0Z" fill="#42107C"/>
<path d="M81.3984 1.14453H90.7459L107.742 22.9903V1.14453H118.5V40.8651H109.152L92.1562 19.0193V40.8651H81.3984V1.14453Z" fill="#42107C"/>
<path d="M171.405 10.3965H160.359V1.14453H193.22V10.3965H182.173V40.8651H171.405V10.3965Z" fill="#42107C"/>
<path d="M154.719 1.14453H124.875V10.3965H154.719V1.14453Z" fill="#03843E"/>
<path d="M154.719 16.4609H124.875V25.5375H154.719V16.4609Z" fill="#03843E"/>
<path d="M154.719 31.6133H124.875V40.8652H154.719V31.6133Z" fill="#03843E"/>
<rect x="203.22" y="1" width="1" height="40" fill="#03843E"/>
<path d="M215.644 16.5V4.488H217.943L225.031 13.1366H223.915V4.488H226.661V16.5H224.378L217.274 7.85136H218.39V16.5H215.644ZM233.552 16.6373C232.5 16.6373 231.573 16.4314 230.773 16.0195C229.983 15.6077 229.371 15.0471 228.936 14.3378C228.502 13.6171 228.284 12.7992 228.284 11.884C228.284 10.9573 228.496 10.1394 228.919 9.43008C229.354 8.70936 229.943 8.1488 230.687 7.7484C231.43 7.33656 232.271 7.13064 233.209 7.13064C234.113 7.13064 234.925 7.32512 235.646 7.71408C236.378 8.0916 236.956 8.64072 237.379 9.36144C237.802 10.0707 238.014 10.923 238.014 11.9183C238.014 12.0212 238.008 12.1414 237.997 12.2786C237.985 12.4045 237.974 12.5246 237.963 12.639H230.464V11.0774H236.555L235.526 11.5408C235.526 11.0603 235.429 10.6427 235.234 10.2881C235.04 9.93344 234.771 9.65888 234.428 9.4644C234.084 9.25848 233.684 9.15552 233.226 9.15552C232.769 9.15552 232.363 9.25848 232.008 9.4644C231.665 9.65888 231.396 9.93916 231.202 10.3052C231.007 10.6599 230.91 11.0832 230.91 11.5751V11.9869C230.91 12.4903 231.019 12.9364 231.236 13.3254C231.465 13.7029 231.779 13.9946 232.18 14.2006C232.592 14.395 233.072 14.4923 233.621 14.4923C234.113 14.4923 234.542 14.4179 234.908 14.2692C235.286 14.1205 235.629 13.8974 235.938 13.6L237.362 15.1444C236.939 15.6248 236.407 15.9966 235.766 16.2598C235.125 16.5114 234.388 16.6373 233.552 16.6373ZM241.396 16.5L238.067 7.26792H240.59L243.352 15.213H242.151L245.034 7.26792H247.299L250.096 15.213H248.895L251.744 7.26792H254.112L250.766 16.5H248.174L245.721 9.68748H246.51L243.97 16.5H241.396ZM257.985 16.6373C257.196 16.6373 256.435 16.5458 255.703 16.3627C254.982 16.1682 254.41 15.928 253.987 15.642L254.879 13.7201C255.302 13.9832 255.8 14.2006 256.372 14.3722C256.955 14.5323 257.527 14.6124 258.088 14.6124C258.706 14.6124 259.14 14.538 259.392 14.3893C259.655 14.2406 259.787 14.0347 259.787 13.7716C259.787 13.5542 259.684 13.394 259.478 13.2911C259.283 13.1767 259.02 13.0909 258.689 13.0337C258.357 12.9765 257.991 12.9193 257.59 12.8621C257.201 12.8049 256.807 12.7305 256.406 12.639C256.006 12.536 255.64 12.3873 255.308 12.1928C254.976 11.9984 254.707 11.7352 254.501 11.4035C254.307 11.0717 254.21 10.6427 254.21 10.1165C254.21 9.53304 254.376 9.01824 254.707 8.57208C255.051 8.12592 255.543 7.777 256.183 7.52532C256.824 7.2622 257.59 7.13064 258.483 7.13064C259.112 7.13064 259.752 7.19928 260.405 7.33656C261.057 7.47384 261.6 7.67404 262.035 7.93716L261.142 9.84192C260.696 9.5788 260.244 9.40148 259.787 9.30996C259.341 9.207 258.906 9.15552 258.483 9.15552C257.888 9.15552 257.453 9.2356 257.178 9.39576C256.904 9.55592 256.767 9.76184 256.767 10.0135C256.767 10.2423 256.864 10.4139 257.058 10.5283C257.264 10.6427 257.533 10.7342 257.865 10.8029C258.197 10.8715 258.557 10.9344 258.946 10.9916C259.346 11.0374 259.747 11.1118 260.147 11.2147C260.548 11.3177 260.908 11.4664 261.228 11.6609C261.56 11.8439 261.829 12.1013 262.035 12.4331C262.241 12.7534 262.344 13.1767 262.344 13.7029C262.344 14.2749 262.172 14.784 261.829 15.2302C261.486 15.6649 260.988 16.0081 260.336 16.2598C259.695 16.5114 258.912 16.6373 257.985 16.6373ZM214.065 37.5L219.419 25.488H222.165L227.536 37.5H224.619L220.226 26.8951H221.324L216.914 37.5H214.065ZM216.742 34.926L217.48 32.8153H223.658L224.413 34.926H216.742ZM232.508 40.9663C231.638 40.9663 230.798 40.8576 229.985 40.6403C229.185 40.4344 228.515 40.1198 227.978 39.6965L229.042 37.7746C229.431 38.0949 229.922 38.3466 230.517 38.5296C231.124 38.7241 231.719 38.8213 232.302 38.8213C233.251 38.8213 233.938 38.6097 234.361 38.1864C234.796 37.7631 235.013 37.1339 235.013 36.2988V34.9088L235.185 32.5922L235.151 30.2585V28.2679H237.69V35.9556C237.69 37.6716 237.244 38.9357 236.352 39.748C235.459 40.5602 234.178 40.9663 232.508 40.9663ZM232.096 37.0538C231.238 37.0538 230.46 36.8708 229.762 36.5047C229.076 36.1272 228.521 35.6067 228.098 34.9432C227.686 34.2682 227.48 33.4846 227.48 32.5922C227.48 31.6885 227.686 30.9048 228.098 30.2413C228.521 29.5664 229.076 29.0458 229.762 28.6798C230.46 28.3137 231.238 28.1306 232.096 28.1306C232.874 28.1306 233.56 28.2908 234.155 28.6111C234.75 28.92 235.213 29.4062 235.545 30.0697C235.877 30.7218 236.043 31.5626 236.043 32.5922C236.043 33.6104 235.877 34.4512 235.545 35.1148C235.213 35.7668 234.75 36.253 234.155 36.5734C233.56 36.8937 232.874 37.0538 232.096 37.0538ZM232.628 34.8574C233.097 34.8574 233.515 34.7658 233.881 34.5828C234.247 34.3883 234.533 34.1195 234.739 33.7763C234.945 33.4331 235.048 33.0384 235.048 32.5922C235.048 32.1346 234.945 31.74 234.739 31.4082C234.533 31.065 234.247 30.8019 233.881 30.6188C233.515 30.4244 233.097 30.3271 232.628 30.3271C232.159 30.3271 231.741 30.4244 231.375 30.6188C231.009 30.8019 230.718 31.065 230.5 31.4082C230.294 31.74 230.191 32.1346 230.191 32.5922C230.191 33.0384 230.294 33.4331 230.5 33.7763C230.718 34.1195 231.009 34.3883 231.375 34.5828C231.741 34.7658 232.159 34.8574 232.628 34.8574ZM244.42 37.6373C243.368 37.6373 242.441 37.4314 241.64 37.0195C240.851 36.6077 240.239 36.0471 239.804 35.3378C239.369 34.6171 239.152 33.7992 239.152 32.884C239.152 31.9573 239.364 31.1394 239.787 30.4301C240.222 29.7094 240.811 29.1488 241.555 28.7484C242.298 28.3366 243.139 28.1306 244.077 28.1306C244.981 28.1306 245.793 28.3251 246.514 28.7141C247.246 29.0916 247.824 29.6407 248.247 30.3614C248.67 31.0707 248.882 31.923 248.882 32.9183C248.882 33.0212 248.876 33.1414 248.865 33.2786C248.853 33.4045 248.842 33.5246 248.83 33.639H241.331V32.0774H247.423L246.394 32.5408C246.394 32.0603 246.296 31.6427 246.102 31.2881C245.907 30.9334 245.639 30.6589 245.295 30.4644C244.952 30.2585 244.552 30.1555 244.094 30.1555C243.637 30.1555 243.23 30.2585 242.876 30.4644C242.533 30.6589 242.264 30.9392 242.069 31.3052C241.875 31.6599 241.778 32.0832 241.778 32.5751V32.9869C241.778 33.4903 241.886 33.9364 242.104 34.3254C242.332 34.7029 242.647 34.9946 243.047 35.2006C243.459 35.395 243.94 35.4923 244.489 35.4923C244.981 35.4923 245.41 35.4179 245.776 35.2692C246.153 35.1205 246.497 34.8974 246.805 34.6L248.23 36.1444C247.806 36.6248 247.275 36.9966 246.634 37.2598C245.993 37.5114 245.255 37.6373 244.42 37.6373ZM255.932 28.1306C256.664 28.1306 257.316 28.2794 257.888 28.5768C258.472 28.8628 258.929 29.309 259.261 29.9153C259.593 30.5102 259.759 31.2766 259.759 32.2147V37.5H257.082V32.6266C257.082 31.883 256.916 31.3338 256.584 30.9792C256.264 30.6246 255.806 30.4472 255.211 30.4472C254.788 30.4472 254.405 30.5388 254.062 30.7218C253.73 30.8934 253.467 31.1622 253.272 31.5283C253.089 31.8944 252.998 32.3634 252.998 32.9354V37.5H250.321V28.2679H252.878V30.8248L252.397 30.0526C252.729 29.4348 253.204 28.96 253.822 28.6283C254.439 28.2965 255.143 28.1306 255.932 28.1306ZM266.371 37.6373C265.376 37.6373 264.489 37.4371 263.711 37.0367C262.933 36.6248 262.321 36.0586 261.875 35.3378C261.44 34.6171 261.223 33.7992 261.223 32.884C261.223 31.9573 261.44 31.1394 261.875 30.4301C262.321 29.7094 262.933 29.1488 263.711 28.7484C264.489 28.3366 265.376 28.1306 266.371 28.1306C267.343 28.1306 268.19 28.3366 268.911 28.7484C269.631 29.1488 270.163 29.7265 270.506 30.4816L268.43 31.597C268.19 31.1622 267.887 30.8419 267.521 30.636C267.166 30.4301 266.777 30.3271 266.354 30.3271C265.896 30.3271 265.484 30.4301 265.118 30.636C264.752 30.8419 264.46 31.1336 264.243 31.5112C264.037 31.8887 263.934 32.3463 263.934 32.884C263.934 33.4216 264.037 33.8792 264.243 34.2568C264.46 34.6343 264.752 34.926 265.118 35.1319C265.484 35.3378 265.896 35.4408 266.354 35.4408C266.777 35.4408 267.166 35.3436 267.521 35.1491C267.887 34.9432 268.19 34.6171 268.43 34.171L270.506 35.3035C270.163 36.0471 269.631 36.6248 268.911 37.0367C268.19 37.4371 267.343 37.6373 266.371 37.6373ZM272.737 40.9663C272.257 40.9663 271.782 40.892 271.313 40.7432C270.844 40.5945 270.461 40.3886 270.163 40.1255L271.141 38.2207C271.347 38.4038 271.582 38.5468 271.845 38.6497C272.12 38.7527 272.388 38.8042 272.652 38.8042C273.029 38.8042 273.326 38.7126 273.544 38.5296C273.773 38.358 273.979 38.0663 274.162 37.6544L274.642 36.5219L274.848 36.2302L278.16 28.2679H280.734L276.564 38.0663C276.267 38.8099 275.923 39.3933 275.534 39.8166C275.157 40.2399 274.734 40.5373 274.265 40.7089C273.807 40.8805 273.298 40.9663 272.737 40.9663ZM274.316 37.8604L270.198 28.2679H272.96L276.152 35.9899L274.316 37.8604Z" fill="#42107C"/>
</svg>
