<svg width="161" height="36" viewBox="0 0 161 36" fill="none" xmlns="http://www.w3.org/2000/svg">
<path d="M0 0.955078H24.4815V9.14876H8.96396V15.4921H23.1605V23.2124H8.96396V34.1H0V0.955078Z" fill="#FBFBFB"/>
<path d="M45.4891 26.7586C50.4558 26.7586 54.3759 22.7306 54.3759 17.5235C54.3759 12.3164 50.4558 8.28838 45.4891 8.28838C40.5225 8.28838 36.6024 12.3594 36.6024 17.5235C36.6024 22.6876 40.4796 26.7586 45.4891 26.7586ZM45.4891 0C55.6969 0 63.2712 7.81499 63.2712 17.5235C63.2712 27.232 55.7055 35.047 45.4891 35.047C35.2728 35.047 27.707 27.232 27.707 17.5235C27.707 7.81499 35.2728 0 45.4891 0Z" fill="#FBFBFB"/>
<path d="M67.8252 0.955078H75.614L89.7762 19.1844V0.955078H98.7401V34.1H90.9513L76.7891 15.8708V34.1H67.8252V0.955078Z" fill="#FBFBFB"/>
<path d="M142.823 8.6754H133.619V0.955078H161V8.6754H151.796V34.1H142.823V8.6754Z" fill="#FBFBFB"/>
<path d="M128.919 0.955078H104.052V8.6754H128.919V0.955078Z" fill="#03843E"/>
<path d="M128.919 13.7363H104.052V21.3103H128.919V13.7363Z" fill="#03843E"/>
<path d="M128.919 26.3789H104.052V34.0992H128.919V26.3789Z" fill="#03843E"/>
</svg>
