<svg width="112" height="34" viewBox="0 0 112 34" fill="none" xmlns="http://www.w3.org/2000/svg">
<mask id="mask0_7_948" style="mask-type:alpha" maskUnits="userSpaceOnUse" x="0" y="0" width="112" height="34">
<g clip-path="url(#clip0_7_948)">
<g clip-path="url(#clip1_7_948)">
<path d="M2 17H0V18H2V17Z" fill="white"/>
<path d="M7 15H5V19H7V15Z" fill="white"/>
<path d="M12 14H10V20H12V14Z" fill="white"/>
<path d="M17 15H15V19H17V15Z" fill="white"/>
<path d="M22 12H20V22H22V12Z" fill="white"/>
<path d="M27 9H25V25H27V9Z" fill="white"/>
<path d="M32 6H30V28H32V6Z" fill="white"/>
<path d="M37 11H35V23H37V11Z" fill="white"/>
<path d="M42 14H40V20H42V14Z" fill="white"/>
<path d="M47 14H45V20H47V14Z" fill="white"/>
<path d="M52 13H50V21H52V13Z" fill="white"/>
<path d="M57 7H55V27H57V7Z" fill="white"/>
<path d="M62 4H60V30H62V4Z" fill="white"/>
<path d="M67 6H65V28H67V6Z" fill="white"/>
<path d="M72 0H70V34H72V0Z" fill="white"/>
<path d="M77 3H75V31H77V3Z" fill="white"/>
<path d="M82 5H80V29H82V5Z" fill="white"/>
<path d="M87 3H85V31H87V3Z" fill="white"/>
<path d="M92 10H90V24H92V10Z" fill="white"/>
<path d="M97 14H95V20H97V14Z" fill="white"/>
<path d="M102 14H100V20H102V14Z" fill="white"/>
<path d="M107 15H105V19H107V15Z" fill="white"/>
<path d="M112 16H110V17H112V16Z" fill="white"/>
</g>
</g>
</mask>
<g mask="url(#mask0_7_948)">
<rect y="0.229492" width="112" height="34" fill="#03843E"/>
</g>
<defs>
<clipPath id="clip0_7_948">
<rect width="112" height="34" fill="white"/>
</clipPath>
<clipPath id="clip1_7_948">
<rect width="112" height="34" fill="white"/>
</clipPath>
</defs>
</svg>
